<svg xmlns="http://www.w3.org/2000/svg" xmlns:xlink="http://www.w3.org/1999/xlink" id="body_2" preserveAspectRatio="xMinYMin meet" viewBox="0 0 793 1121"><defs><clipPath id="1"><path d="M0 841L0 -0.9199829L0 -0.9199829L595.32 -0.9199829L595.32 -0.9199829L595.32 841L595.32 841L0 841z" /></clipPath><clipPath id="2"><path d="M8.871E-06 841L595.32 841L595.32 841L595.32 -0.9199829L595.32 -0.9199829L8.871E-06 -0.9199829z" /></clipPath><clipPath id="3"><path d="M8.871E-06 841L595.32 841L595.32 841L595.32 -0.9199829L595.32 -0.9199829L8.871E-06 -0.9199829z" /></clipPath><clipPath id="4"><path d="M8.871E-06 841L595.32 841L595.32 841L595.32 -0.9199829L595.32 -0.9199829L8.871E-06 -0.9199829z" /></clipPath><clipPath id="5"><path d="M8.871E-06 841L595.32 841L595.32 841L595.32 -0.9199829L595.32 -0.9199829L8.871E-06 -0.9199829z" /></clipPath><clipPath id="6"><path d="M8.871E-06 841L595.32 841L595.32 841L595.32 -0.9199829L595.32 -0.9199829L8.871E-06 -0.9199829z" /></clipPath><clipPath id="7"><path d="M8.871E-06 841L595.32 841L595.32 841L595.32 -0.9199829L595.32 -0.9199829L8.871E-06 -0.9199829z" /></clipPath><clipPath id="8"><path d="M8.871E-06 841L595.32 841L595.32 841L595.32 -0.9199829L595.32 -0.9199829L8.871E-06 -0.9199829z" /></clipPath><clipPath id="9"><path d="M8.871E-06 841L595.32 841L595.32 841L595.32 -0.9199829L595.32 -0.9199829L8.871E-06 -0.9199829z" /></clipPath><clipPath id="10"><path d="M8.871E-06 841L595.32 841L595.32 841L595.32 -0.9199829L595.32 -0.9199829L8.871E-06 -0.9199829z" /></clipPath><clipPath id="11"><path d="M8.871E-06 841L595.32 841L595.32 841L595.32 -0.9199829L595.32 -0.9199829L8.871E-06 -0.9199829z" /></clipPath><clipPath id="12"><path d="M8.871E-06 841L595.32 841L595.32 841L595.32 -0.9199829L595.32 -0.9199829L8.871E-06 -0.9199829z" /></clipPath><clipPath id="13"><path d="M8.871E-06 841L595.32 841L595.32 841L595.32 -0.9199829L595.32 -0.9199829L8.871E-06 -0.9199829z" /></clipPath><clipPath id="14"><path d="M8.871E-06 841L595.32 841L595.32 841L595.32 -0.9199829L595.32 -0.9199829L8.871E-06 -0.9199829z" /></clipPath><clipPath id="15"><path d="M122 160.84L324.9 160.84L324.9 160.84L324.9 131.64L324.9 131.64L122 131.64z" /></clipPath><clipPath id="16"><path d="M90 448.05L462.68 448.05L462.68 448.05L462.68 176.6L462.68 176.6L90 176.6z" /></clipPath><clipPath id="17"><path d="M122 475.38L189.32 475.38L189.32 475.38L189.32 456.68L189.32 456.68L122 456.68z" /></clipPath></defs><g transform="matrix(1.333333 0 0 1.333333 0 0)"><g><g clip-path="url(#1)"><g clip-path="url(#2)"></g><g clip-path="url(#3)"></g><g clip-path="url(#4)"></g><g clip-path="url(#5)"></g><g clip-path="url(#6)"></g><g clip-path="url(#7)"></g><g clip-path="url(#8)"></g><g clip-path="url(#9)"></g><g clip-path="url(#10)"></g><g clip-path="url(#11)"></g><g clip-path="url(#12)"></g><g clip-path="url(#13)"></g><g clip-path="url(#14)"></g><g clip-path="url(#15)"><g transform="matrix(0.7487085 0 0 0.748718 122 131.64)"><g transform="matrix(1 0 0 1 0 0)"><image x="0" y="0" xlink:href="img_02.png" width="271" height="39" /></g></g></g><g clip-path="url(#16)"><g transform="matrix(0.7498591 -6.140443E-08 0 0.749862 90 176.6)"><g transform="matrix(1 0 0 1 0 0)"><image x="0" y="0" xlink:href="img_03.png" width="497" height="362" /></g></g></g><g clip-path="url(#17)"><g transform="matrix(0.748 0 0 0.748 122 456.68)"><g transform="matrix(1 0 0 1 0 0)"><image x="0" y="0" xlink:href="img_04.png" width="90" height="25" /></g></g></g></g></g></g></svg>