<svg xmlns="http://www.w3.org/2000/svg" xmlns:xlink="http://www.w3.org/1999/xlink" id="body_11" preserveAspectRatio="xMinYMin meet" viewBox="0 0 793 1121"><defs><clipPath id="1"><path d="M0 841L0 -0.9199829L0 -0.9199829L595.32 -0.9199829L595.32 -0.9199829L595.32 841L595.32 841L0 841z" /></clipPath><clipPath id="2"><path d="M8.871E-06 841L595.32 841L595.32 841L595.32 -0.9199829L595.32 -0.9199829L8.871E-06 -0.9199829z" /></clipPath><clipPath id="3"><path d="M8.871E-06 841L595.32 841L595.32 841L595.32 -0.9199829L595.32 -0.9199829L8.871E-06 -0.9199829z" /></clipPath><clipPath id="4"><path d="M8.871E-06 841L595.32 841L595.32 841L595.32 -0.9199829L595.32 -0.9199829L8.871E-06 -0.9199829z" /></clipPath><clipPath id="5"><path d="M8.871E-06 841L595.32 841L595.32 841L595.32 -0.9199829L595.32 -0.9199829L8.871E-06 -0.9199829z" /></clipPath><clipPath id="6"><path d="M8.871E-06 841L595.32 841L595.32 841L595.32 -0.9199829L595.32 -0.9199829L8.871E-06 -0.9199829z" /></clipPath><clipPath id="7"><path d="M90 347.18L462.68 347.18L462.68 347.18L462.68 75.72998L462.68 75.72998L90 75.72998z" /></clipPath><clipPath id="8"><path d="M90 627.98L462.68 627.98L462.68 627.98L462.68 356.53L462.68 356.53L90 356.53z" /></clipPath></defs><g transform="matrix(1.333333 0 0 1.333333 0 0)"><g><g clip-path="url(#1)"><g clip-path="url(#2)"></g><g clip-path="url(#3)"></g><g clip-path="url(#4)"></g><g clip-path="url(#5)"></g><g clip-path="url(#6)"></g><g clip-path="url(#7)"><g transform="matrix(0.7498591 0 0 0.749862 90 75.72998)"><g transform="matrix(1 0 0 1 0 0)"><image x="0" y="0" xlink:href="img_30.png" width="497" height="362" /></g></g></g><g clip-path="url(#8)"><g transform="matrix(0.7498591 0 0 0.749862 90 356.53)"><g transform="matrix(1 0 0 1 0 0)"><image x="0" y="0" xlink:href="img_31.png" width="497" height="362" /></g></g></g></g></g></g></svg>